<svg viewBox="0 0 1400 340" xmlns="http://www.w3.org/2000/svg" preserveAspectRatio="xMidYMax slice">
  <!-- mountain / mine range -->
  <path fill="#ffffff" fill-opacity="0.07" d="
    M0,340 L0,230 L60,150 L120,220 L180,120 L250,210 L320,140 L380,200 L450,110 L520,190 L600,150 L670,210
    L740,130 L810,200 L880,160 L950,220 L1020,140 L1090,190 L1160,150 L1230,210 L1300,170 L1400,220 L1400,340 Z" />

  <!-- mine headframe towers -->
  <g stroke="#ffffff" stroke-opacity="0.09" stroke-width="2.5" fill="none">
    <path d="M175,120 L175,60 M160,60 L190,60 M175,90 L155,105 M175,90 L195,105"/>
    <path d="M445,110 L445,50 M430,50 L460,50 M445,80 L425,95 M445,80 L465,95"/>
    <path d="M1015,140 L1015,80 M1000,80 L1030,80 M1015,110 L995,125 M1015,110 L1035,125"/>
  </g>

  <!-- water ripples -->
  <g stroke="#ffffff" stroke-opacity="0.08" stroke-width="2" fill="none">
    <path d="M0,300 Q50,290 100,300 T200,300 T300,300 T400,300 T500,300 T600,300 T700,300 T800,300 T900,300 T1000,300 T1100,300 T1200,300 T1300,300 T1400,300"/>
    <path d="M0,316 Q50,308 100,316 T200,316 T300,316 T400,316 T500,316 T600,316 T700,316 T800,316 T900,316 T1000,316 T1100,316 T1200,316 T1300,316 T1400,316"/>
    <path d="M0,332 Q50,325 100,332 T200,332 T300,332 T400,332 T500,332 T600,332 T700,332 T800,332 T900,332 T1000,332 T1100,332 T1200,332 T1300,332 T1400,332"/>
  </g>
</svg>
