<svg viewBox="0 0 1400 340" xmlns="http://www.w3.org/2000/svg" preserveAspectRatio="xMidYMid slice">
  <g stroke="#ffffff" stroke-opacity="0.07" stroke-width="1.4">
    <line x1="90" y1="80" x2="230" y2="140"/>
    <line x1="230" y1="140" x2="150" y2="240"/>
    <line x1="230" y1="140" x2="370" y2="90"/>
    <line x1="370" y1="90" x2="480" y2="180"/>
    <line x1="480" y1="180" x2="400" y2="260"/>
    <line x1="480" y1="180" x2="610" y2="110"/>
    <line x1="610" y1="110" x2="700" y2="200"/>
    <line x1="700" y1="200" x2="620" y2="270"/>
    <line x1="700" y1="200" x2="830" y2="130"/>
    <line x1="830" y1="130" x2="920" y2="220"/>
    <line x1="920" y1="220" x2="840" y2="280"/>
    <line x1="920" y1="220" x2="1050" y2="150"/>
    <line x1="1050" y1="150" x2="1150" y2="230"/>
    <line x1="1150" y1="230" x2="1070" y2="290"/>
    <line x1="1150" y1="230" x2="1280" y2="160"/>
    <line x1="1280" y1="160" x2="1360" y2="240"/>
  </g>
  <g fill="#ffffff" fill-opacity="0.13">
    <circle cx="90" cy="80" r="4.5"/>
    <circle cx="230" cy="140" r="6.5"/>
    <circle cx="150" cy="240" r="4"/>
    <circle cx="370" cy="90" r="4.5"/>
    <circle cx="480" cy="180" r="6.5"/>
    <circle cx="400" cy="260" r="4"/>
    <circle cx="610" cy="110" r="4.5"/>
    <circle cx="700" cy="200" r="7"/>
    <circle cx="620" cy="270" r="4"/>
    <circle cx="830" cy="130" r="4.5"/>
    <circle cx="920" cy="220" r="6.5"/>
    <circle cx="840" cy="280" r="4"/>
    <circle cx="1050" cy="150" r="4.5"/>
    <circle cx="1150" cy="230" r="6.5"/>
    <circle cx="1070" cy="290" r="4"/>
    <circle cx="1280" cy="160" r="4.5"/>
    <circle cx="1360" cy="240" r="4"/>
  </g>
</svg>
