<svg viewBox="0 0 1400 340" xmlns="http://www.w3.org/2000/svg" preserveAspectRatio="xMidYMax slice">
  <!-- Ribeira rooflines -->
  <path fill="#ffffff" fill-opacity="0.07" d="
    M0,340 L0,270 L35,270 L35,240 L70,255 L70,270 L110,270 L110,230 L130,215 L150,230 L150,270
    L190,270 L190,250 L225,250 L225,225 L245,210 L265,225 L265,250 L300,250 L300,270 L340,270 L340,235
    L360,220 L380,235 L380,270 L420,270 L420,245 L455,245 L455,215 L475,200 L495,215 L495,245 L530,245
    L530,270 L570,270 L570,240 L590,225 L610,240 L610,270 L650,270 L650,250 L685,250 L685,220 L705,205
    L725,220 L725,250 L760,250 L760,270 L800,270 L800,235 L820,220 L840,235 L840,270 L880,270 L880,245
    L915,245 L915,215 L935,200 L955,215 L955,245 L990,245 L990,270 L1030,270 L1030,240 L1050,225 L1070,240
    L1070,270 L1110,270 L1110,250 L1145,250 L1145,220 L1165,205 L1185,220 L1185,250 L1220,250 L1220,270
    L1260,270 L1260,235 L1280,220 L1300,235 L1300,270 L1340,270 L1340,245 L1400,245 L1400,340 Z" />

  <!-- Dom Luís bridge arch -->
  <g fill="none" stroke="#ffffff" stroke-opacity="0.09" stroke-width="2.5">
    <path d="M180,260 Q700,60 1220,260"/>
    <path d="M180,260 Q700,95 1220,260"/>
    <path d="M330,235 L490,120 M420,205 L560,105 M520,178 L640,100 M630,160 L730,95 M760,158 L860,100 M860,178 L950,110 M960,205 L1050,125 M1060,235 L1120,150"/>
    <line x1="180" y1="260" x2="1220" y2="260"/>
  </g>
</svg>
