<svg viewBox="0 0 1400 340" xmlns="http://www.w3.org/2000/svg" preserveAspectRatio="xMidYMax slice">
  <path fill="#ffffff" fill-opacity="0.07" d="
    M0,340 L0,260 L40,260 L40,220 L90,220 L90,270 L140,270 L140,190 L160,190 L160,150 L180,150 L180,190
    L230,190 L230,240 L280,240 L280,200 L330,200 L330,260 L380,260 L380,180 L400,180 L400,140 L420,140 L420,180
    L470,180 L470,230 L520,230 L520,190 L570,190 L570,250 L620,250 L620,170 L640,170 L640,130 L660,130 L660,170
    L710,170 L710,220 L760,220 L760,260 L810,260 L810,200 L860,200 L860,150 L880,150 L880,110 L900,110 L900,150
    L950,150 L950,210 L1000,210 L1000,250 L1050,250 L1050,190 L1100,190 L1100,230 L1150,230 L1150,170 L1170,170
    L1170,140 L1190,140 L1190,170 L1240,170 L1240,220 L1290,220 L1290,260 L1340,260 L1340,200 L1400,200 L1400,340 Z" />
  <!-- window dots, faint -->
  <g fill="#ffffff" fill-opacity="0.05">
    <circle cx="60" cy="245" r="2.2"/><circle cx="115" cy="245" r="2.2"/><circle cx="150" cy="215" r="2.2"/>
    <circle cx="255" cy="215" r="2.2"/><circle cx="305" cy="225" r="2.2"/><circle cx="355" cy="225" r="2.2"/>
    <circle cx="495" cy="205" r="2.2"/><circle cx="545" cy="215" r="2.2"/><circle cx="595" cy="215" r="2.2"/>
    <circle cx="735" cy="195" r="2.2"/><circle cx="785" cy="235" r="2.2"/><circle cx="835" cy="230" r="2.2"/>
    <circle cx="975" cy="180" r="2.2"/><circle cx="1025" cy="230" r="2.2"/><circle cx="1075" cy="220" r="2.2"/>
    <circle cx="1215" cy="195" r="2.2"/><circle cx="1265" cy="195" r="2.2"/><circle cx="1315" cy="235" r="2.2"/>
  </g>
</svg>
